<svg width="45" height="39" viewBox="0 0 45 39" fill="none" xmlns="http://www.w3.org/2000/svg">
<path d="M22.5 15.149L19.9856 10.2292C19.3612 9.011 18.2784 7.25925 16.7456 5.843C15.2381 4.44875 13.4325 3.5 11.25 3.5C6.53625 3.5 2.8125 7.1465 2.8125 11.53C2.8125 14.8603 4.37063 17.2115 8.06625 20.7975C9.01406 21.716 10.0941 22.7088 11.2894 23.8033C14.4056 26.6632 18.2812 30.2217 22.5 34.9792C26.7188 30.2217 30.5944 26.6632 33.7106 23.8033C34.9059 22.7088 35.9888 21.7132 36.9338 20.7975C40.6294 17.2115 42.1875 14.8603 42.1875 11.53C42.1875 7.1465 38.4637 3.5 33.75 3.5C31.5647 3.5 29.7619 4.44875 28.2544 5.843C26.7216 7.25925 25.6388 9.011 25.0144 10.2292L22.5 15.149ZM23.6025 37.952C23.4671 38.1089 23.2982 38.235 23.1078 38.3214C22.9174 38.4079 22.71 38.4527 22.5 38.4527C22.29 38.4527 22.0826 38.4079 21.8922 38.3214C21.7018 38.235 21.5329 38.1089 21.3975 37.952C16.8947 32.7215 12.8194 28.9815 9.46406 25.9043C3.65625 20.572 0 17.2197 0 11.53C0 5.57625 5.03437 0.75 11.25 0.75C15.75 0.75 18.8972 3.6375 20.8237 6.272C21.555 7.27575 22.1119 8.241 22.5 9C22.9865 8.05007 23.5469 7.13806 24.1762 6.272C26.1028 3.63475 29.25 0.75 33.75 0.75C39.9656 0.75 45 5.57625 45 11.53C45 17.2197 41.3438 20.572 35.5359 25.9043C32.1806 28.9843 28.1053 32.727 23.6025 37.952Z" fill="#99BAEB"/>
</svg>
