<svg width="45" height="39" viewBox="0 0 45 39" fill="none" xmlns="http://www.w3.org/2000/svg">
<path d="M11.25 0.75C17.4656 0.75 22.5 5.57625 22.5 11.53C22.5 5.57625 27.5344 0.75 33.75 0.75C39.9656 0.75 45 5.57625 45 11.53C45 20.5033 35.9044 23.6685 23.6025 37.952C23.4671 38.1089 23.2982 38.235 23.1078 38.3214C22.9174 38.4079 22.71 38.4527 22.5 38.4527C22.29 38.4527 22.0826 38.4079 21.8922 38.3214C21.7018 38.235 21.5329 38.1089 21.3975 37.952C9.09562 23.6685 0 20.5033 0 11.53C0 5.57625 5.03437 0.75 11.25 0.75Z" fill="#99BAEB"/>
</svg>
