<svg width="551" height="526" viewBox="0 0 551 526" fill="none" xmlns="http://www.w3.org/2000/svg">
<path d="M193.374 28.5842C155.874 39.5842 61.074 74.2842 31.874 157.084C-4.62601 260.584 -8.57277 293.854 31.874 376.584C81.9449 479 212.5 507 230.5 509.5C386.071 509.5 461.041 441.251 483.374 402.584C508.874 363.584 545.974 259.884 490.374 157.084C434.774 54.2842 329.874 20.2509 284.374 16.0842C269.541 15.0842 237.174 22.5842 226.374 60.5842C216.226 96.2905 248.546 96.8271 269.078 92.0605C271.601 91.4748 273.933 90.2811 275.921 88.6203C290.22 76.6736 308.236 56.1942 284.374 53.5842C252.374 50.0842 259.374 109.584 226.374 107.084C193.374 104.584 208.874 91.0842 173.874 91.0842C138.874 91.0842 154.374 118.584 173.874 123.084C193.374 127.584 202.874 126.584 179.874 157.084C156.874 187.584 194.374 187.584 226.374 194.584C258.374 201.584 312.374 212.084 327.874 184.584C340.274 162.584 304.041 157.084 284.374 157.084C239.207 153.084 145.474 169.584 131.874 267.584C131.874 325.584 202.374 276.084 210.374 349.084C218.374 422.084 221.374 435.584 256.874 448.084C292.374 460.584 272.874 426.584 300.374 384.584C321.678 352.047 348.765 364.396 360.749 375.502C361.511 376.208 362.191 377 362.765 377.866C371.991 391.792 375.545 418.431 320.874 423.084C265.953 427.758 305.824 355.688 334.577 316.201C336.088 314.127 337.253 311.819 337.709 309.293C341.421 288.742 335.607 252.227 285.917 243.834C284.909 243.663 283.818 243.573 282.798 243.617C256.988 244.739 286.497 274.151 306.017 289.992C306.923 290.727 307.872 291.361 308.905 291.902C335.473 305.808 388.605 319.369 400.374 267.584C411.463 218.794 380.996 219.187 360.656 226.63C357.47 227.795 354.531 229.914 353.437 233.125C349.645 244.256 360.438 258.874 427.874 252.584C505.074 245.384 492 277.167 476.5 293" stroke="#99BAEB" stroke-width="5" stroke-linejoin="round"/>
<path d="M193.789 33.722C157.083 47.1338 64.7359 87.916 40.9739 172.437C11.2713 278.089 9.4931 311.545 55.2263 391.474C111.842 490.423 243.939 509.886 262.064 511.212C417.306 501.111 487.686 428.138 507.462 388.103C530.376 347.529 560.664 241.639 498.506 142.666C436.349 43.6933 329.46 16.5431 283.786 15.3396C268.919 15.3049 237.107 24.8907 228.797 63.5118C220.989 99.8016 253.276 98.2385 273.455 92.1489C275.935 91.4005 278.185 90.0579 280.06 88.2716C293.553 75.4216 310.202 53.8156 286.221 52.7605C254.061 51.3457 264.91 110.266 231.817 109.914C198.724 109.562 213.315 95.0837 178.389 97.3563C143.462 99.6289 160.715 126.064 180.466 129.289C200.217 132.513 209.633 130.898 188.661 162.827C167.69 194.757 205.111 192.322 237.498 197.229C269.885 202.136 324.453 209.108 338.135 180.66C349.08 157.901 312.566 154.765 292.941 156.042C247.61 154.983 155.146 177.535 147.938 276.211C151.704 334.089 218.841 280.115 231.564 352.442C244.287 424.768 248.157 438.045 284.394 448.214C320.631 458.382 298.964 425.72 323.679 382.023C342.826 348.171 370.657 358.736 383.337 369.039C384.144 369.695 384.873 370.441 385.502 371.268C395.613 384.565 400.889 410.918 346.636 419.111C292.134 427.341 327.242 352.834 353.37 311.564C354.743 309.395 355.755 307.016 356.046 304.466C358.416 283.717 350.244 247.658 300.113 242.508C299.097 242.404 298.002 242.384 296.987 242.495C271.304 245.29 302.661 272.724 323.168 287.264C324.12 287.939 325.108 288.51 326.174 288.982C353.589 301.134 407.489 311.217 415.871 258.777C423.768 209.37 393.392 211.74 373.577 220.488C370.474 221.858 367.679 224.163 366.796 227.438C363.735 238.791 375.454 252.678 442.339 242.023C518.909 229.825 507.926 262.39 493.487 279.196" stroke="#666666" stroke-width="5" stroke-linejoin="round"/>
</svg>
